<?xml version="1.0" encoding="UTF-8" standalone="no"?>
<svg
   version="1.1"
   width="940"
   height="788"
   id="svg6"
   sodipodi:docname="logo (2).svg"
   inkscape:version="1.4 (86a8ad7, 2024-10-11)"
   xmlns:inkscape="http://www.inkscape.org/namespaces/inkscape"
   xmlns:sodipodi="http://sodipodi.sourceforge.net/DTD/sodipodi-0.dtd"
   xmlns="http://www.w3.org/2000/svg"
   xmlns:svg="http://www.w3.org/2000/svg">
  <defs
     id="defs6" />
  <sodipodi:namedview
     id="namedview6"
     pagecolor="#505050"
     bordercolor="#eeeeee"
     borderopacity="1"
     inkscape:showpageshadow="0"
     inkscape:pageopacity="0"
     inkscape:pagecheckerboard="0"
     inkscape:deskcolor="#505050"
     inkscape:zoom="0.70710678"
     inkscape:cx="325.26912"
     inkscape:cy="454.66966"
     inkscape:window-width="1920"
     inkscape:window-height="991"
     inkscape:window-x="-9"
     inkscape:window-y="-9"
     inkscape:window-maximized="1"
     inkscape:current-layer="svg6" />
  <path
     d="M0 0 C310.2 0 620.4 0 940 0 C940 260.04 940 520.08 940 788 C629.8 788 319.6 788 0 788 C0 527.96 0 267.92 0 0 Z "
     transform="translate(0,0)"
     style="fill:#000000;stroke:#565656;stroke-opacity:0.84482759;fill-opacity:0"
     id="path1" />
  <path
     d="M0 0 C310.2 0 620.4 0 940 0 C940 260.04 940 520.08 940 788 C629.8 788 319.6 788 0 788 C0 527.96 0 267.92 0 0 Z M358 32 C356.61409668 32.41475586 356.61409668 32.41475586 355.20019531 32.83789062 C314.33667678 45.24964154 274.35834808 65.16228805 240.79394531 91.59130859 C238.98649508 93.01060471 237.16347021 94.40747031 235.3359375 95.80078125 C228.55899369 100.99973328 222.13937025 106.44831498 215.9140625 112.296875 C213.70950408 114.34185413 211.48338915 116.31940556 209.20703125 118.28125 C204.64356536 122.25783044 200.33923434 126.46870868 196.0625 130.75 C194.8712854 131.9424231 194.8712854 131.9424231 193.65600586 133.15893555 C188.82200968 138.04362234 184.27984845 142.97084956 180.05078125 148.390625 C178.14575813 150.81454013 176.15812196 153.14441525 174.1328125 155.46801758 C145.64163918 188.32039275 124.89245901 228.36905563 110 269 C109.74524902 269.69496582 109.49049805 270.38993164 109.22802734 271.10595703 C107.69046398 275.36576374 106.30366535 279.66394155 105 284 C104.77248047 284.74878418 104.54496094 285.49756836 104.31054688 286.26904297 C100.84614564 297.83783351 98.14189679 309.52986812 95.8125 321.375 C95.57474854 322.56609375 95.33699707 323.7571875 95.09204102 324.984375 C91.3432464 344.67702797 89.51373282 364.0888828 89.66381836 384.13623047 C89.68749026 387.49861687 89.68433316 390.86020678 89.67773438 394.22265625 C89.69731337 408.90121945 90.5324095 423.39754234 92 438 C92.07529434 438.7602951 92.15058868 439.52059021 92.22816467 440.30392456 C93.44224881 452.40237848 95.88194997 464.24493626 98.39599609 476.13085938 C98.90048732 478.52729465 99.38534711 480.9263181 99.86328125 483.328125 C104.76002124 506.25693597 113.48488252 528.64255021 123 550 C123.36947754 550.8353125 123.73895508 551.670625 124.11962891 552.53125 C135.15295989 577.2633507 149.59125048 600.47767568 166 622 C166.40782715 622.53641113 166.8156543 623.07282227 167.23583984 623.62548828 C172.71255094 630.80055926 178.35702643 637.70012144 184.515625 644.3046875 C186.47889344 646.43464854 188.37936161 648.59158946 190.26953125 650.78515625 C194.14511501 655.22991089 198.25764375 659.40521723 202.4375 663.5625 C203.50581055 664.63661133 203.50581055 664.63661133 204.59570312 665.73242188 C209.23272683 670.36102229 214.00936087 674.75619184 219 679 C219.63703857 679.54374268 220.27407715 680.08748535 220.93041992 680.64770508 C287.98800727 737.47717183 372.77017795 771.30258206 460.98193359 771.13037109 C464.22888915 771.1250347 467.47570501 771.13033002 470.72265625 771.13671875 C487.09909498 771.14367826 503.16456842 770.7140544 519.375 768.1875 C520.52983887 768.01154297 521.68467773 767.83558594 522.87451172 767.65429688 C531.75418836 766.26827319 540.56666506 764.6471923 549.32226562 762.61743164 C551.44274645 762.12849145 553.56738239 761.65757544 555.69335938 761.19311523 C566.45422866 758.80348375 576.83564703 755.6610604 587.25 752.0625 C588.47674438 751.64123337 588.47674438 751.64123337 589.72827148 751.2114563 C627.75458237 738.09097899 664.75561508 719.58046967 696 694 C696.83660156 693.34128906 697.67320312 692.68257812 698.53515625 692.00390625 C710.90840332 682.2582584 722.62550567 671.88728895 734 661 C734.52400391 660.49936035 735.04800781 659.9987207 735.58789062 659.48291016 C741.46405141 653.83586573 746.82351999 647.97268514 751.8984375 641.59765625 C753.79684204 639.25111532 755.76714708 637.03040327 757.8125 634.8125 C774.08021065 616.6196165 787.22256363 595.28479435 799 574 C799.62551758 572.88455811 799.62551758 572.88455811 800.26367188 571.74658203 C815.60484529 544.26529907 826.63327037 514.54111549 834 484 C834.38379542 482.44523368 834.76788993 480.89054115 835.15234375 479.3359375 C841.781056 452.21404123 844.60140981 425.34293386 844.5 397.4375 C844.49785492 395.51901245 844.49785492 395.51901245 844.4956665 393.56176758 C844.21216949 290.50980343 802.20769914 195.39181078 727.93237305 120.81518555 C723.76009226 116.69857383 719.49232993 112.76612622 715 109 C714.10796875 108.21882813 713.2159375 107.43765625 712.296875 106.6328125 C676.7909124 75.70475277 635.28101575 53.09680422 591.15283203 37.14086914 C589.11903517 36.40492887 587.08846692 35.65997407 585.06201172 34.90405273 C568.94360535 28.91080533 552.1612487 25.48938653 535.3125 22.25 C534.17279755 22.02707779 534.17279755 22.02707779 533.0100708 21.7996521 C512.1974699 17.754583 491.79150603 16.62289641 470.5949707 16.62939453 C466.60011483 16.62963609 462.60600405 16.58864082 458.61132812 16.55078125 C424.55510912 16.4027056 390.58453098 22.14697569 358 32 Z "
     transform="translate(0,0)"
     style="fill:#ff5555;fill-opacity:0;stroke:#f7f7f7;stroke-opacity:1"
     id="path2" />
  <path
     d="M0 0 C1.95831505 -0.00855011 1.95831505 -0.00855011 3.95619202 -0.01727295 C6.72234478 -0.02774145 9.48846894 -0.03360762 12.25463867 -0.03710938 C15.03635107 -0.04144739 17.81774511 -0.05516166 20.59936523 -0.078125 C38.43490074 -0.22237181 55.87241936 0.49172063 73.53515625 3.203125 C75.04557243 3.4346804 75.04557243 3.4346804 76.58650208 3.6709137 C127.11444269 11.53292073 176.39201248 29.61072949 219.53515625 57.203125 C220.61152344 57.88632813 221.68789063 58.56953125 222.796875 59.2734375 C225.74925565 61.19872802 228.64775918 63.18158477 231.53515625 65.203125 C232.20756348 65.67331055 232.8799707 66.14349609 233.57275391 66.62792969 C246.44686152 75.66881471 258.40046815 85.33701808 270.0234375 95.9375 C272.10162586 97.81207115 274.20552069 99.64455204 276.32421875 101.47265625 C280.58748791 105.19660518 284.6077345 109.12748353 288.59765625 113.140625 C289.26603516 113.80513672 289.93441406 114.46964844 290.62304688 115.15429688 C295.13229978 119.67231412 299.37905743 124.36018354 303.53515625 129.203125 C304.39238281 130.17894531 305.24960937 131.15476563 306.1328125 132.16015625 C327.22871193 156.5993044 344.6565409 184.18295614 358.60400391 213.27148438 C359.5484681 215.23073993 360.51515342 217.17789018 361.484375 219.125 C386.21308835 269.42295933 395.97297703 325.02963283 396.03515625 380.640625 C396.04189362 382.49457886 396.04189362 382.49457886 396.04876709 384.38598633 C396.08430637 408.40095917 393.60881577 431.73639795 388.53515625 455.203125 C388.33051758 456.1612207 388.12587891 457.11931641 387.91503906 458.10644531 C382.42541474 483.40466921 374.0560838 507.57095047 363.53515625 531.203125 C363.12072266 532.14043457 362.70628906 533.07774414 362.27929688 534.04345703 C341.15896502 581.31861845 308.18159372 626.60798588 268.53515625 660.203125 C267.52106506 661.0912272 266.50814835 661.9806714 265.49609375 662.87109375 C252.30269851 674.42126485 238.31282086 684.77072967 223.53515625 694.203125 C222.8685498 694.62916016 222.20194336 695.05519531 221.51513672 695.49414062 C181.23533824 721.05358972 137.27841772 738.79586047 90.53515625 748.203125 C89.65150391 748.38166016 88.76785156 748.56019531 87.85742188 748.74414062 C83.09923444 749.68493765 78.33425937 750.4938236 73.53515625 751.203125 C72.88514648 751.29932129 72.23513672 751.39551758 71.56542969 751.49462891 C54.19781851 754.00891812 36.82667859 754.38976628 19.30639648 754.38842773 C16.10582262 754.39061941 12.90559173 754.40886891 9.70507812 754.42773438 C-2.50923645 754.46108621 -14.36472795 753.84792966 -26.46484375 752.203125 C-28.32648799 751.98668292 -30.18841885 751.77267311 -32.05078125 751.5625 C-98.58218075 743.3436359 -162.15682699 716.00752393 -214.46484375 674.203125 C-215.41746094 673.44386719 -216.37007812 672.68460938 -217.3515625 671.90234375 C-222.67564022 667.60298391 -227.83216475 663.15629214 -232.8828125 658.5390625 C-234.97839641 656.64320897 -237.09918302 654.79120019 -239.23828125 652.9453125 C-243.62696739 649.11143512 -247.78472556 645.07495918 -251.90234375 640.953125 C-252.64661621 640.20877197 -253.39088867 639.46441895 -254.15771484 638.69750977 C-258.95849259 633.84686608 -263.42023691 628.90759968 -267.6328125 623.53515625 C-269.31952399 621.38810559 -271.07581065 619.35620658 -272.90234375 617.328125 C-288.2647669 599.80099677 -301.00750254 579.7270062 -312.26513672 559.37207031 C-313.04394697 557.96406253 -313.82907843 556.55952585 -314.62158203 555.15917969 C-338.76047563 512.48002814 -353.69099 462.09188993 -357.46484375 413.203125 C-357.59403198 411.60368042 -357.59403198 411.60368042 -357.72583008 409.97192383 C-360.03509117 378.00315572 -360.50489192 344.76043799 -354.46484375 313.203125 C-354.2234668 311.91325684 -353.98208984 310.62338867 -353.73339844 309.29443359 C-341.44209337 244.62687831 -312.77596149 184.57350326 -270.46484375 134.203125 C-269.23507812 132.69492187 -269.23507812 132.69492187 -267.98046875 131.15625 C-261.62608162 123.45713467 -254.76950161 116.32642161 -247.71484375 109.265625 C-246.82764648 108.37762207 -245.94044922 107.48961914 -245.02636719 106.57470703 C-239.9948471 101.58557152 -234.85419586 96.80175279 -229.46484375 92.203125 C-228.48902344 91.34589844 -227.51320312 90.48867187 -226.5078125 89.60546875 C-191.77577482 59.62473581 -151.43341722 37.02189567 -108.46484375 21.203125 C-107.57893555 20.86933838 -106.69302734 20.53555176 -105.78027344 20.19165039 C-78.61808317 10.07245054 -50.10894213 4.89565991 -21.46484375 1.203125 C-20.29679199 1.02587891 -19.12874023 0.84863281 -17.92529297 0.66601562 C-11.97336601 -0.06924545 -5.98851141 0.02058335 0 0 Z M-22.46484375 18.203125 C-23.71539551 18.36973633 -24.96594727 18.53634766 -26.25439453 18.70800781 C-41.53210895 20.75987298 -56.63286616 22.88469056 -71.36254883 27.58105469 C-73.97118222 28.35295085 -76.60271255 28.99010972 -79.24609375 29.6328125 C-104.13196639 35.77406325 -127.86710689 46.22490323 -150.46484375 58.203125 C-151.16593262 58.57228027 -151.86702148 58.94143555 -152.58935547 59.32177734 C-174.00799189 70.67549579 -193.92580566 84.60512412 -212.46484375 100.203125 C-213.92277344 101.38261719 -213.92277344 101.38261719 -215.41015625 102.5859375 C-223.65143761 109.34196021 -231.23109921 116.75428806 -238.77734375 124.265625 C-239.54502579 125.02554245 -239.54502579 125.02554245 -240.32821655 125.80081177 C-247.17890351 132.59683278 -253.46836041 139.62683799 -259.46484375 147.203125 C-260.46596057 148.42286772 -261.46949745 149.64063247 -262.4765625 150.85546875 C-288.83298245 183.04581615 -308.06864537 219.28126187 -322.46484375 258.203125 C-322.74408691 258.94820312 -323.02333008 259.69328125 -323.31103516 260.4609375 C-333.74866631 288.58395201 -338.68256616 318.46998248 -341.46484375 348.203125 C-341.53832031 348.98526367 -341.61179687 349.76740234 -341.6875 350.57324219 C-344.15846619 378.29275124 -342.01944355 406.27355076 -337.84277344 433.71582031 C-337.48794497 436.05108673 -337.15131639 438.38837444 -336.81640625 440.7265625 C-331.8835858 473.91909526 -320.37384046 506.23358552 -305.46484375 536.203125 C-304.76174072 537.63374268 -304.76174072 537.63374268 -304.04443359 539.09326172 C-292.81001576 561.81682023 -279.18318168 582.34861744 -263.46484375 602.203125 C-263.0073877 602.78658691 -262.54993164 603.37004883 -262.07861328 603.97119141 C-248.22030976 621.61874303 -231.93254975 639.36976458 -214.1796875 653.1015625 C-212.09990043 654.71152717 -210.09374416 656.3502672 -208.09375 658.0546875 C-191.66831971 671.95114006 -173.4412315 683.60165065 -154.63378906 694.00341797 C-153.22578128 694.78222822 -151.8212446 695.56735968 -150.42089844 696.35986328 C-118.6815065 714.31134022 -83.94744109 724.71507342 -48.46484375 732.203125 C-47.41031006 732.42911377 -47.41031006 732.42911377 -46.33447266 732.65966797 C0.47302116 742.48403441 49.93879772 739.64455393 96.53515625 730.203125 C97.40076172 730.03119629 98.26636719 729.85926758 99.15820312 729.68212891 C170.27562587 715.09580036 239.43727611 673.24627159 287.17529297 618.75 C288.63746512 617.08674636 290.11912505 615.44208086 291.6015625 613.796875 C328.73692869 572.21338312 354.28973306 520.86352163 368.53515625 467.203125 C368.72416504 466.50993164 368.91317383 465.81673828 369.10791016 465.10253906 C393.61949489 375.07173189 377.01346808 276.69790841 331.53515625 196.203125 C320.00983587 176.54054797 306.64253863 158.24735128 291.53515625 141.203125 C290.40995613 139.89079656 289.28492524 138.57832297 288.16015625 137.265625 C279.27762685 127.19443595 270.16828261 117.41240193 260.06689453 108.54785156 C259.0273075 107.63518893 257.99194905 106.71769146 256.96044922 105.79589844 C241.04450488 91.57682161 223.58783749 79.53333881 205.53515625 68.203125 C204.85904297 67.77080566 204.18292969 67.33848633 203.48632812 66.89306641 C148.59838112 31.93038573 80.91555124 15.9127554 16.41015625 16.015625 C15.25764374 16.01702988 15.25764374 16.01702988 14.08184814 16.01846313 C1.78563599 16.05078555 -10.27111339 16.5213689 -22.46484375 18.203125 Z "
     fill="#FBFBFB"
     transform="translate(448.46484375,16.796875)"
     id="path3"
     style="stroke:#000000;stroke-opacity:1;fill:#000000;fill-opacity:1;stroke-width:14;stroke-dasharray:none;stroke-dashoffset:0" />
  <path
     d="M0 0 C1.08334514 -0.00679667 1.08334514 -0.00679667 2.18857604 -0.01373065 C4.61567548 -0.02641931 7.04255179 -0.02475134 9.46968079 -0.02310181 C11.20769032 -0.02908486 12.9456972 -0.03588989 14.68370056 -0.04345703 C19.41379935 -0.06116139 24.14382582 -0.06581468 28.87395453 -0.0670886 C31.83383229 -0.06850992 34.79369165 -0.07277947 37.75356483 -0.07808304 C48.09433279 -0.09660817 58.43504913 -0.10475182 68.77583313 -0.10317993 C78.38742974 -0.10198254 87.99880032 -0.12299921 97.61033982 -0.15466726 C105.87725931 -0.18092574 114.14410554 -0.19154301 122.41106635 -0.19026911 C127.34122987 -0.18976166 132.27119323 -0.19532232 137.20131493 -0.21662521 C141.85122393 -0.23616554 146.50074544 -0.2360255 151.1506691 -0.22159195 C152.84520479 -0.21952115 154.53976571 -0.22409983 156.23425865 -0.23631287 C170.21713088 -0.33045319 183.78447103 1.27028801 196.32637024 8.01742554 C196.9871759 8.36249146 197.64798157 8.70755737 198.32881165 9.06307983 C215.50883037 18.31240549 228.52397501 33.72622561 234.38887024 52.32992554 C236.49969945 59.83614781 237.16150505 66.61871357 237.20137024 74.39242554 C237.23230774 75.86582397 237.23230774 75.86582397 237.26387024 77.36898804 C237.36537359 96.6546254 228.07700768 114.73976085 214.91230774 128.41586304 C203.98796481 139.26742554 203.98796481 139.26742554 198.95137024 139.26742554 C202.09417021 142.51498551 205.370184 145.53160914 208.76387024 148.51742554 C222.68836813 161.08041697 230.17678033 174.31644796 234.95137024 192.26742554 C235.29595276 193.35982544 235.64053528 194.45222534 235.99555969 195.57772827 C237.57584891 201.96801593 237.25957076 208.55087727 237.25215149 215.09164429 C237.25604494 216.52554955 237.26038094 217.95945366 237.26513672 219.39335632 C237.27256284 222.38470213 237.27233236 225.3759298 237.26704407 228.36727905 C237.26122954 232.19384724 237.2782451 236.01993451 237.30138874 239.84642315 C237.31613487 242.80188301 237.31699703 245.75722692 237.31387901 248.71271706 C237.31439098 250.12367524 237.31960523 251.53464013 237.32969093 252.94556236 C237.34206474 254.9169887 237.3333147 256.88851318 237.32368469 258.85995483 C237.32431412 259.97944016 237.32494354 261.09892548 237.32559204 262.25233459 C236.76256327 266.78863621 234.83665711 269.35754736 231.70137024 272.57992554 C228.10957027 274.78398461 226.10695714 274.8506658 221.95137024 274.26742554 C217.49489245 271.95348515 215.16207424 269.73855293 212.95137024 265.26742554 C212.5728302 262.3931427 212.5728302 262.3931427 212.56660461 259.19882202 C212.55649353 257.99664536 212.54638245 256.79446869 212.53596497 255.55586243 C212.53898621 254.26313919 212.54200745 252.97041595 212.54512024 251.63851929 C212.53587395 250.28434504 212.52489884 248.9301816 212.51228333 247.57603455 C212.47559133 243.2856789 212.46183162 238.99541482 212.45137024 234.70492554 C212.43921719 229.75192865 212.41721287 224.79935355 212.37136841 219.84654427 C212.35799851 217.88161253 212.36213226 215.91658612 212.36677551 213.95161438 C212.22441703 196.71496534 206.8969589 181.89858711 194.95137024 169.26742554 C179.53150464 154.40961526 162.48027544 149.78672523 141.53779602 149.89852905 C139.92016343 149.89605578 138.30253246 149.89221206 136.68490601 149.88711548 C133.22610722 149.87883266 129.7674734 149.87953737 126.30867386 149.88730049 C120.83678419 149.89895684 115.36510357 149.8866622 109.89323425 149.87068176 C96.31271079 149.83462208 82.73219363 149.82826167 69.15162659 149.83078003 C58.57377568 149.83249151 47.99609732 149.82538676 37.41829479 149.79080147 C31.98059176 149.77402285 26.54331044 149.77578706 21.10560918 149.79162419 C17.7259054 149.79742111 14.34640178 149.78668249 10.96673393 149.77137756 C9.40183928 149.76765246 7.83691096 149.77075622 6.27204704 149.78124809 C4.13292135 149.79463397 1.99525344 149.78339959 -0.14381409 149.76622009 C-1.33946424 149.76642938 -2.5351144 149.76663866 -3.76699638 149.76685429 C-7.76262507 149.15876325 -9.91377492 147.77713219 -13.04862976 145.26742554 C-15.8746885 141.02833743 -15.70875222 137.24618051 -15.04862976 132.26742554 C-12.99755388 128.87254132 -11.34378355 127.46419473 -8.04862976 125.26742554 C-4.9431448 125.01129913 -4.9431448 125.01129913 -1.03555298 125.00241089 C-0.31725659 124.99802962 0.40103979 124.99364835 1.14110273 124.98913431 C3.55456531 124.97678625 5.96781132 124.97862435 8.38130188 124.98031616 C10.10934268 124.97429342 11.83738055 124.96736955 13.56541443 124.95960999 C17.2911471 124.94470282 21.01682601 124.9359671 24.74258614 124.93190002 C30.6390939 124.92519069 36.53548689 124.90343861 42.4319458 124.87936401 C54.95922704 124.83034999 67.4865327 124.7980921 80.01387024 124.76742554 C93.51383906 124.73433152 107.01376311 124.6982906 120.51366323 124.64329481 C126.36910064 124.62000777 132.22445894 124.60622016 138.07993805 124.59980011 C141.73403015 124.59383804 145.3880587 124.57972047 149.04211807 124.56345558 C150.72948437 124.5576067 152.41686631 124.5551017 154.10424232 124.55629539 C170.46332629 124.56456465 185.38677272 122.81397611 197.88887024 111.07992554 C210.05157215 97.85071805 212.81914076 83.81246839 212.13056946 66.51254272 C211.74095396 61.63120202 210.19144285 57.57311028 207.95137024 53.26742554 C207.52726868 52.42051147 207.10316711 51.57359741 206.66621399 50.70101929 C200.2462014 38.98762584 191.19963888 32.1640202 178.95137024 27.26742554 C173.56231264 25.72236962 168.91764822 25.01732889 163.2721405 25.01586914 C162.17792902 25.01141393 162.17792902 25.01141393 161.06161225 25.00686872 C158.64050538 24.99928809 156.2196454 25.00569799 153.79853821 25.01205444 C152.05341936 25.00930185 150.30830177 25.00562031 148.56318665 25.00108337 C144.81678955 24.99299517 141.07045205 24.99079686 137.32404709 24.99303055 C131.39883829 24.99587074 125.47374803 24.98148661 119.54856873 24.96405029 C102.7038499 24.91708664 85.85913995 24.89307449 69.01435852 24.88656616 C59.70230961 24.88281647 50.39039562 24.86479872 41.07840455 24.8314718 C35.18913993 24.81125601 29.3002232 24.8088878 23.41093802 24.81975198 C19.74824896 24.82235848 16.08576272 24.80835889 12.42312622 24.78967094 C10.7260118 24.78434778 9.02886006 24.7858479 7.33176041 24.79470634 C5.0128995 24.8058336 2.69541 24.79239101 0.37663269 24.77294922 C-0.92007921 24.77185968 -2.21679111 24.77077015 -3.55279732 24.7696476 C-7.68504846 24.17599567 -9.82619772 22.87827206 -13.04862976 20.26742554 C-15.86811688 16.03819486 -15.84212406 12.23469986 -15.04862976 7.26742554 C-10.67174378 1.58930318 -7.02127043 0.01815181 0 0 Z "
     fill="#FCFCFC"
     transform="translate(213.0486297607422,256.7325744628906)"
     id="path4"
     style="stroke:#000000;stroke-opacity:1;stroke-width:14;stroke-dasharray:none;fill:#000000;fill-opacity:1" />
  <path
     d="M0 0 C1.22541504 0.00563965 2.45083008 0.0112793 3.71337891 0.01708984 C24.6284449 0.29699201 42.4275208 6.37996624 58.0078125 20.87890625 C72.64643673 36.25617666 80.65776487 54.89990801 80.69116211 76.0715332 C80.1081046 98.26658911 69.80598788 116.63068209 54.06640625 131.734375 C37.72617625 146.69214448 17.73813793 149.78032594 -3.58398438 149.71655273 C-5.32999098 149.7222688 -7.07599385 149.72923779 -8.82199097 149.73735046 C-13.51981692 149.75514762 -18.21745478 149.75414066 -22.91530418 149.74840808 C-26.8472439 149.7453007 -30.77914828 149.75142488 -34.71108294 149.75744683 C-43.98287478 149.77144232 -53.25457435 149.76996864 -62.52636719 149.75854492 C-72.0821677 149.74703137 -81.63768861 149.76120487 -91.19345236 149.7879414 C-99.41798419 149.81008886 -107.64242817 149.81673902 -115.86698771 149.81086498 C-120.77094649 149.80749643 -125.67472547 149.80990554 -130.57865906 149.82711601 C-135.18191846 149.84257094 -139.78476144 149.83864591 -144.3880043 149.81981087 C-146.07545517 149.81612289 -147.76293685 149.81923956 -149.45035934 149.82969666 C-151.75575745 149.84289267 -154.05977345 149.83137376 -156.3651123 149.81370544 C-157.6540313 149.81349616 -158.94295029 149.81328688 -160.27092743 149.81307125 C-165.27521301 149.09305135 -168.37362073 146.86647659 -171.6875 143.125 C-173.21523191 139.08100378 -173.45354832 135.33366639 -171.75 131.3125 C-168.50269141 127.3005736 -166.47826175 125.58924544 -161.32333374 124.76379013 C-156.86591324 124.48015055 -152.40891145 124.5502166 -147.9453125 124.60302734 C-146.22479309 124.6014044 -144.50427443 124.59708701 -142.7837677 124.59028625 C-139.08515469 124.58128009 -135.38723351 124.59096975 -131.68869019 124.61518478 C-125.82819917 124.65312672 -119.96823834 124.64740509 -114.10766602 124.63565063 C-102.71213363 124.6188116 -91.31692128 124.64686178 -79.92144012 124.67906952 C-65.4461107 124.71754856 -50.97083734 124.73357483 -36.49546814 124.71386492 C-30.68303892 124.70737195 -24.87114687 124.72146183 -19.0588007 124.75231528 C-15.42303705 124.76780101 -11.78740431 124.76670812 -8.15161705 124.76157188 C-6.4808327 124.76262304 -4.81003488 124.77042766 -3.13932228 124.7859478 C13.37525023 124.93270043 27.96808103 122.56785654 40.71484375 111.09375 C50.42970991 101.13641629 55.15503656 88.73966709 55.5625 75 C55.29867165 60.85220467 50.47663387 48.90476562 40.77734375 38.640625 C30.83419592 29.48124926 19.86752128 25.44005233 6.52734375 25.13671875 C5.49416016 25.11287109 4.46097656 25.08902344 3.39648438 25.06445312 C1.25345962 25.02141002 -0.88983482 24.99020011 -3.03320312 24.97070312 C-9.17907107 24.80563609 -13.15590107 24.57467717 -17.75 20.3125 C-20.47547049 16.33457342 -20.44043129 11.97083158 -19.75 7.3125 C-14.71594907 -0.84613427 -8.71143126 -0.04082208 0 0 Z "
     fill="#FCFCFC"
     transform="translate(656.75,381.6875)"
     id="path5"
     style="stroke-width:14;stroke-dasharray:none;stroke:#000000;stroke-opacity:1;fill:#000000;fill-opacity:1" />
  <path
     d="M0 0 C1.76556324 -0.00571445 3.5311228 -0.01268283 5.29667664 -0.02079773 C10.05241045 -0.03861424 14.80795864 -0.03758401 19.5637157 -0.03185534 C23.54282633 -0.02875032 27.52190198 -0.03486967 31.50100762 -0.04089409 C40.88449086 -0.05489644 50.26788295 -0.05341059 59.65136719 -0.04199219 C69.32359325 -0.03048244 78.99554295 -0.04464424 88.66773266 -0.07138866 C96.98990783 -0.09353622 105.31199617 -0.10018613 113.63419873 -0.09431225 C118.5974164 -0.09094318 123.56045642 -0.09335604 128.52364922 -0.11056328 C133.18352714 -0.12601798 137.84299371 -0.1220934 142.5028553 -0.10325813 C144.21126858 -0.09956986 145.91971228 -0.10268768 147.62809753 -0.11314392 C149.96200732 -0.12633809 152.29455149 -0.11482244 154.62840271 -0.09715271 C155.93336921 -0.09694343 157.2383357 -0.09673414 158.58284664 -0.09651852 C163.66075547 0.6270176 166.81718824 2.7842913 169.97094727 6.77905273 C171.35379352 10.005694 171.59353815 11.92091656 171.09594727 15.40405273 C168.57251057 20.35387086 166.18699072 22.33041722 161.09594727 24.40405273 C157.64252281 24.78043365 157.64252281 24.78043365 153.77352905 24.78259277 C153.05816408 24.7871229 152.3427991 24.79165303 151.6057564 24.79632044 C149.21997478 24.8079036 146.83475828 24.79831406 144.44897461 24.78881836 C142.73358805 24.79292555 141.01820427 24.79838729 139.30282593 24.80509949 C135.61312845 24.81681404 131.92358052 24.81931241 128.23386765 24.81474304 C122.39115549 24.8079231 116.54863927 24.82382081 110.70596313 24.84313965 C98.29430174 24.88098675 85.88265749 24.89378394 73.47094727 24.90405273 C60.09084312 24.9151362 46.7108296 24.9306093 33.3307873 24.9747653 C27.53188048 24.99305084 21.73319834 24.99703888 15.93426967 24.98983002 C12.3128439 24.98829982 8.69152876 24.99914495 5.07013321 25.01320839 C3.40133839 25.01718516 1.73252209 25.01613068 0.06373596 25.00943565 C-16.49237766 24.94816158 -30.6195581 27.44115307 -43.21655273 39.09155273 C-53.29002248 49.9834919 -57.52952373 62.62602269 -57.12670898 77.30249023 C-56.14823625 90.93244382 -50.74939938 103.1678432 -40.71655273 112.59155273 C-32.08379328 119.88499706 -22.52740765 124.64637602 -11.08764648 124.64233398 C-9.19949219 124.66650391 -9.19949219 124.66650391 -7.27319336 124.69116211 C-4.64824293 124.7081141 -2.02319048 124.71328785 0.60180664 124.70678711 C11.31202032 124.87696477 11.31202032 124.87696477 14.93579102 127.82202148 C18.19387395 131.71640271 18.44098826 134.12805768 18.37719727 139.07983398 C17.93990512 142.69356772 16.50216482 144.73770355 14.09594727 147.40405273 C2.08396539 153.40554191 -17.98614479 150.45256043 -30.52905273 146.66577148 C-39.76780636 143.21193188 -47.38481437 138.75525407 -54.90405273 132.40405273 C-55.49573242 131.95674805 -56.08741211 131.50944336 -56.69702148 131.04858398 C-71.32706569 119.63246254 -78.91120453 101.24398419 -81.90405273 83.40405273 C-84.14274014 64.21814379 -78.74774159 44.97026809 -67.10327148 29.56811523 C-59.22814208 19.72549788 -50.17168753 12.91356608 -39.02905273 7.09155273 C-38.41771484 6.76558105 -37.80637695 6.43960937 -37.17651367 6.10375977 C-25.33646436 0.22656733 -12.89964747 -0.0380509 0 0 Z "
     fill="#FCFCFC"
     transform="translate(565.904052734375,256.595947265625)"
     id="path6"
     style="stroke-width:14;stroke-dasharray:none;stroke:#000000;stroke-opacity:1;fill:#000000;fill-opacity:1" />
</svg>
