<?xml version="1.0" encoding="UTF-8" standalone="no"?>
<svg
   version="1.1"
   width="940"
   height="788"
   id="svg6"
   sodipodi:docname="logo (2).svg"
   inkscape:version="1.4 (86a8ad7, 2024-10-11)"
   xmlns:inkscape="http://www.inkscape.org/namespaces/inkscape"
   xmlns:sodipodi="http://sodipodi.sourceforge.net/DTD/sodipodi-0.dtd"
   xmlns="http://www.w3.org/2000/svg"
   xmlns:svg="http://www.w3.org/2000/svg">
  <defs
     id="defs6" />
  <sodipodi:namedview
     id="namedview6"
     pagecolor="#505050"
     bordercolor="#eeeeee"
     borderopacity="1"
     inkscape:showpageshadow="0"
     inkscape:pageopacity="0"
     inkscape:pagecheckerboard="0"
     inkscape:deskcolor="#505050"
     inkscape:zoom="0.70710678"
     inkscape:cx="325.26912"
     inkscape:cy="454.66966"
     inkscape:window-width="1920"
     inkscape:window-height="991"
     inkscape:window-x="-9"
     inkscape:window-y="-9"
     inkscape:window-maximized="1"
     inkscape:current-layer="svg6" />
  <path
     d="m 0,0 c 1.958315,-0.00855011 1.958315,-0.00855011 3.956192,-0.01727295 2.7661528,-0.0104685 5.5322769,-0.01633467 8.298447,-0.01983643 2.781712,-0.004338 5.563106,-0.01805228 8.344726,-0.04101562 17.835536,-0.14424681 35.273054,0.56984563 52.935791,3.28125 1.510416,0.2315554 1.510416,0.2315554 3.051346,0.4677887 50.527938,7.8620073 99.805508,25.9398153 142.948658,53.5322113 1.07636,0.683203 2.15273,1.366406 3.26171,2.070312 2.95239,1.925291 5.85089,3.908148 8.73829,5.929688 0.6724,0.470186 1.34481,0.940371 2.03759,1.424805 12.87411,9.040885 24.82772,18.709088 36.45069,29.30957 2.07819,1.874571 4.18208,3.707052 6.30078,5.53516 4.26327,3.72395 8.28351,7.65482 12.27344,11.66797 0.66838,0.66451 1.33675,1.32902 2.02539,2.01367 4.50925,4.51801 8.75601,9.20588 12.91211,14.04882 0.85722,0.97583 1.71445,1.95165 2.59765,2.95704 21.0959,24.43914 38.52373,52.0228 52.47119,81.11132 0.94447,1.95926 1.91115,3.90641 2.88037,5.85352 24.72872,50.29796 34.48861,105.90463 34.55079,161.51562 0.007,1.85396 0.007,1.85396 0.0136,3.74537 0.0355,24.01497 -2.43995,47.35041 -7.51361,70.81713 -0.20464,0.9581 -0.40928,1.9162 -0.62012,2.90333 -5.48963,25.29822 -13.85896,49.4645 -24.37988,73.09667 -0.41444,0.93731 -0.82887,1.87462 -1.25586,2.84034 -21.12033,47.27516 -54.09771,92.56453 -93.74414,126.15966 -1.01409,0.88811 -2.02701,1.77755 -3.03907,2.66797 -13.19339,11.55017 -27.18327,21.89964 -41.96093,31.33203 -0.66661,0.42604 -1.33322,0.85208 -2.02002,1.29102 -40.2798,25.55945 -84.23672,43.30172 -130.979984,52.70898 -0.883652,0.17854 -1.767304,0.35708 -2.677734,0.54102 -4.758188,0.9408 -9.523163,1.74968 -14.322266,2.45898 -0.65001,0.0962 -1.300019,0.1924 -1.969726,0.29151 -17.367611,2.51429 -34.738751,2.89514 -52.259034,2.8938 -3.200573,0.002 -6.400804,0.0204 -9.6013179,0.0393 -12.2143146,0.0334 -24.0698061,-0.5798 -36.1699221,-2.22461 -1.861644,-0.21644 -3.723575,-0.43045 -5.585937,-0.64062 -66.5314,-8.21886 -130.106049,-35.55498 -182.414059,-77.35938 -0.95262,-0.75925 -1.90524,-1.51851 -2.88672,-2.30078 -5.32408,-4.29936 -10.4806,-8.74605 -15.53125,-13.36328 -2.09559,-1.89585 -4.21637,-3.74786 -6.35547,-5.59375 -4.38869,-3.83387 -8.54645,-7.87035 -12.66406,-11.99219 -0.74428,-0.74435 -1.48855,-1.4887 -2.25537,-2.25561 -4.80078,-4.85064 -9.26253,-9.78991 -13.4751,-15.16235 -1.68671,-2.14705 -3.443,-4.17895 -5.26953,-6.20704 -15.36243,-17.52712 -28.10516,-37.60111 -39.3628,-57.95605 -0.77881,-1.40801 -1.56394,-2.81254 -2.35644,-4.21289 -24.1389,-42.67915 -39.06941,-93.06729 -42.84326,-141.95606 -0.12919,-1.59944 -0.12919,-1.59944 -0.26099,-3.2312 -2.30926,-31.96876 -2.77906,-65.21148 3.26099,-96.7688 0.24137,-1.28986 0.48275,-2.57973 0.73144,-3.90869 12.29131,-64.66755 40.95744,-124.72093 83.26856,-175.09131 1.22976,-1.5082 1.22976,-1.5082 2.48437,-3.04687 6.35439,-7.69912 13.21097,-14.82983 20.26563,-21.89062 0.88719,-0.88801 1.77439,-1.77601 2.68847,-2.69092 5.03152,-4.98914 10.17217,-9.772957 15.56153,-14.371585 0.97582,-0.857227 1.95164,-1.714453 2.95703,-2.597656 34.73204,-29.980733 75.07439,-52.583573 118.04297,-68.402344 0.8859,-0.333787 1.77181,-0.667573 2.68457,-1.011475 C -78.618083,10.072451 -50.108942,4.8956599 -21.464844,1.203125 -20.296792,1.0258789 -19.12874,0.84863281 -17.925293,0.66601562 -11.973366,-0.06924545 -5.9885114,0.02058335 0,0 Z m -22.464844,18.203125 c -1.250552,0.166611 -2.501103,0.333223 -3.789551,0.504883 -15.277714,2.051865 -30.378471,4.176683 -45.108154,8.873047 -2.608633,0.771896 -5.240164,1.409055 -7.883545,2.051757 -24.885876,6.141251 -48.621016,16.592091 -71.218746,28.570313 -0.70109,0.369155 -1.40218,0.738311 -2.12452,1.118652 -21.41863,11.353719 -41.33645,25.283347 -59.87548,40.881353 -1.45793,1.17949 -1.45793,1.17949 -2.94532,2.38281 -8.24128,6.75602 -15.82094,14.16835 -23.36718,21.67969 -0.76769,0.75991 -0.76769,0.75991 -1.55088,1.53518 -6.85068,6.79602 -13.14014,13.82603 -19.13662,21.40231 -1.00112,1.21975 -2.00466,2.43751 -3.01172,3.65235 -26.35642,32.19035 -45.59209,68.42579 -59.98828,107.34765 -0.27925,0.74508 -0.55849,1.49016 -0.8462,2.25782 -10.43763,28.12301 -15.37153,58.00904 -18.1538,87.74218 -0.0735,0.78214 -0.14696,1.56428 -0.22266,2.37012 -2.47097,27.71951 -0.33194,55.70031 3.84473,83.14258 0.35483,2.33527 0.69145,4.67255 1.02636,7.01074 4.93282,33.19254 16.44257,65.50703 31.35157,95.47656 0.7031,1.43062 0.7031,1.43062 1.42041,2.89014 11.23441,22.72356 24.86125,43.25536 40.57959,63.10986 0.45745,0.58347 0.91491,1.16693 1.38623,1.76807 13.8583,17.64755 30.14606,35.39857 47.89892,49.13037 2.07979,1.60997 4.08595,3.24871 6.08594,4.95313 16.42543,13.89645 34.65252,25.54696 53.45996,35.94873 1.40801,0.77881 2.81255,1.56394 4.21289,2.35644 31.73939,17.95148 66.473459,28.35521 101.956056,35.84326 1.054534,0.22599 1.054534,0.22599 2.130371,0.45655 46.80749416,9.82436 96.273271,6.98488 142.869629,-2.45655 0.865606,-0.17192 1.731211,-0.34385 2.623047,-0.52099 C 170.27563,715.0958 239.43728,673.24627 287.17529,618.75 c 1.46218,-1.66325 2.94384,-3.30792 4.42627,-4.95313 37.13537,-41.58349 62.68817,-92.93335 76.9336,-146.59375 0.18901,-0.69319 0.37801,-1.38638 0.57275,-2.10058 24.51158,-90.03081 7.90556,-188.40463 -37.57275,-268.89942 -11.52532,-19.66257 -24.89262,-37.95577 -40,-55 -1.1252,-1.31232 -2.25023,-2.6248 -3.375,-3.9375 -8.88253,-10.07118 -17.99188,-19.85322 -28.09327,-28.71777 -1.03958,-0.91266 -2.07494,-1.83016 -3.10644,-2.75195 C 241.0445,91.576822 223.58784,79.533339 205.53516,68.203125 204.85904,67.770806 204.18293,67.338486 203.48633,66.893066 148.59838,31.930386 80.915551,15.912755 16.410156,16.015625 c -1.152512,0.0014 -1.152512,0.0014 -2.328308,0.0028 -12.296212,0.03232 -24.352961,0.502906 -36.546692,2.184662 z"
     fill="#FBFBFB"
     transform="translate(448.46484,16.796875)"
     id="path3"
     style="display:inline;fill:#000000;fill-opacity:1;stroke:#000000;stroke-width:14;stroke-dasharray:none;stroke-dashoffset:0;stroke-opacity:1" />
  <path
     d="m 0,0 c 1.0833451,-0.00679667 1.0833451,-0.00679667 2.188576,-0.01373065 2.4270995,-0.01268866 4.8539758,-0.01102069 7.2811048,-0.0093712 1.7380092,-0.005983 3.4760162,-0.01278808 5.2140202,-0.02035522 4.730098,-0.01770436 9.460125,-0.02235765 14.190254,-0.02363157 2.959877,-0.0014213 5.919737,-0.0056909 8.87961,-0.01099444 10.340768,-0.01852513 20.681484,-0.02666878 31.022268,-0.02509689 9.611597,0.001197 19.222967,-0.0198193 28.834507,-0.0514873 8.26692,-0.0262585 16.53377,-0.0368758 24.80073,-0.0356018 4.93016,5.0745e-4 9.86012,-0.005053 14.79024,-0.0263561 4.64991,-0.0195403 9.29944,-0.0194003 13.94936,-0.004967 1.69453,0.002071 3.3891,-0.002508 5.08359,-0.0147209 13.98287,-0.0941403 27.55021,1.50660087 40.09211,8.25373837 0.66081,0.345066 1.32161,0.6901319 2.00244,1.0456543 17.18002,9.2493254 30.19517,24.6631464 36.06006,43.2668464 2.11083,7.506222 2.77264,14.288788 2.8125,22.0625 0.0309,1.473398 0.0309,1.473398 0.0625,2.976562 0.1015,19.285637 -9.18686,37.370772 -22.35156,51.046872 -10.92435,10.85157 -10.92435,10.85157 -15.96094,10.85157 3.1428,3.24756 6.41881,6.26418 9.8125,9.25 13.9245,12.56299 21.41291,25.79902 26.1875,43.75 0.34458,1.0924 0.68917,2.1848 1.04419,3.3103 1.58029,6.39029 1.26401,12.97315 1.25659,19.51391 0.004,1.43391 0.008,2.86781 0.013,4.30172 0.007,2.99134 0.007,5.98257 0.002,8.97392 -0.006,3.82657 0.0112,7.65265 0.0343,11.47914 0.0147,2.95546 0.0156,5.91081 0.0125,8.8663 5.1e-4,1.41096 0.006,2.82192 0.0158,4.23284 0.0124,1.97143 0.004,3.94295 -0.006,5.91439 6.3e-4,1.11949 0.001,2.23898 0.002,3.39238 -0.56303,4.53631 -2.48893,7.10522 -5.62422,10.3276 -3.5918,2.20405 -5.59441,2.27074 -9.75,1.6875 -4.45648,-2.31394 -6.7893,-4.52888 -9,-9 -0.37854,-2.87429 -0.37854,-2.87429 -0.38477,-6.06861 -0.0101,-1.20217 -0.0202,-2.40435 -0.0306,-3.64296 0.003,-1.29272 0.006,-2.58544 0.009,-3.91734 -0.009,-1.35417 -0.0202,-2.70834 -0.0328,-4.06249 -0.0367,-4.29035 -0.0505,-8.58062 -0.0609,-12.8711 -0.0121,-4.953 -0.0342,-9.90558 -0.08,-14.85839 -0.0134,-1.96493 -0.009,-3.92995 -0.005,-5.89493 -0.14236,-17.23664 -5.46982,-32.05302 -17.41541,-44.68418 -15.41987,-14.85781 -32.47109,-19.4807 -53.41357,-19.3689 -1.61764,-0.002 -3.23527,-0.006 -4.85289,-0.0114 -3.4588,-0.008 -6.91744,-0.008 -10.37624,1.8e-4 -5.47189,0.0117 -10.94357,-6.4e-4 -16.41544,-0.0166 -13.580519,-0.0361 -27.161036,-0.0424 -40.741603,-0.0399 -10.577851,0.002 -21.15553,-0.005 -31.733332,-0.04 -5.437703,-0.0168 -10.874985,-0.015 -16.312686,8.2e-4 -3.379704,0.006 -6.759207,-0.005 -10.138875,-0.0202 -1.5648947,-0.004 -3.129823,-6.2e-4 -4.694687,0.01 -2.1391257,0.0134 -4.2767936,0.002 -6.41586109,-0.015 -1.19565011,2.1e-4 -2.39130031,4.2e-4 -3.62318231,6.3e-4 -3.9956287,-0.60809 -6.1467785,-1.98972 -9.2816336,-4.49942 -2.826059,-4.23909 -2.660122,-8.02125 -2,-13 2.051076,-3.39489 3.704846,-4.80324 7.0000002,-7 3.105485,-0.25613 3.105485,-0.25613 7.0130768,-0.26502 0.71829641,-0.004 1.43659279,-0.009 2.1766557,-0.0133 2.4134626,-0.0123 4.8267086,-0.0105 7.2401992,-0.009 1.7280411,-0.006 3.4560791,-0.013 5.1841121,-0.0207 3.725733,-0.0149 7.451412,-0.0236 11.177172,-0.0277 5.896508,-0.007 11.792901,-0.0285 17.68936,-0.0525 12.527281,-0.049 25.054587,-0.0813 37.581924,-0.11193 13.499969,-0.0331 26.99989,-0.0691 40.49979,-0.12414 5.85544,-0.0233 11.7108,-0.0371 17.56628,-0.0435 3.65409,-0.006 7.30812,-0.0201 10.96218,-0.0363 1.68736,-0.006 3.37475,-0.008 5.06212,-0.007 16.35909,0.008 31.28253,-1.74232 43.78463,-13.47637 12.1627,-13.229212 14.93027,-27.267462 14.2417,-44.567387 -0.38962,-4.881341 -1.93913,-8.939433 -4.1792,-13.245117 -0.4241,-0.846915 -0.8482,-1.693829 -1.28516,-2.566407 -6.42001,-11.713393 -15.46657,-18.536999 -27.71484,-23.433593 -5.38906,-1.545056 -10.03372,-2.250097 -15.67923,-2.251557 -1.09421,-0.0045 -1.09421,-0.0045 -2.21053,-0.009 -2.4211,-0.0076 -4.84196,-0.0012 -7.26307,0.0052 -1.74512,-0.0028 -3.49024,-0.0064 -5.23535,-0.01097 -3.7464,-0.0081 -7.49274,-0.01029 -11.23914,-0.0081 -5.92521,0.0028 -11.8503,-0.01154 -17.77548,-0.02898 -16.84472,-0.04696 -33.68943,-0.07098 -50.534211,-0.07748 -9.312049,-0.0038 -18.623963,-0.02177 -27.935954,-0.05509 -5.889265,-0.02022 -11.778182,-0.02258 -17.667467,-0.01172 -3.662689,0.0026 -7.325175,-0.01139 -10.987812,-0.03008 -1.697114,-0.0053 -3.3942659,-0.0038 -5.0913656,0.005 -2.3188609,0.01113 -4.6363504,-0.0023 -6.95512771,-0.02176 -1.2967119,-0.0011 -2.59342379,-0.0022 -3.92942999,-0.0033 -4.1322512,-0.593652 -6.2734004,-1.891376 -9.4958327,-4.502222 -2.819487,-4.229231 -2.793494,-8.032726 -2,-13.0000007 C -10.671744,1.5893032 -7.0212704,0.01815181 0,0 Z"
     fill="#FCFCFC"
     transform="translate(213.04863,256.73257)"
     id="path4"
     style="display:inline;fill:#000000;fill-opacity:1;stroke:#000000;stroke-width:14;stroke-dasharray:none;stroke-opacity:1" />
  <path
     d="M 0,0 C 1.225415,0.00563965 2.4508301,0.0112793 3.7133789,0.01708984 24.628445,0.29699201 42.427521,6.3799662 58.007812,20.878906 72.646437,36.256177 80.657765,54.899908 80.691162,76.071533 80.108105,98.266589 69.805988,116.63068 54.066406,131.73437 c -16.34023,14.95777 -36.328268,18.04596 -57.6503904,17.98218 -1.7460066,0.006 -3.4920094,0.0127 -5.2380066,0.0208 -4.697826,0.0178 -9.395464,0.0168 -14.093313,0.0111 -3.93194,-0.003 -7.863844,0.003 -11.795779,0.009 -9.271792,0.014 -18.543491,0.0125 -27.815284,0.001 -9.555801,-0.0115 -19.111322,0.003 -28.667085,0.0294 -8.224532,0.0222 -16.448978,0.0288 -24.673538,0.0229 -4.90396,-0.003 -9.80774,-9.5e-4 -14.71167,0.0163 -4.60326,0.0154 -9.2061,0.0115 -13.80934,-0.007 -1.68746,-0.004 -3.37494,-5.7e-4 -5.06236,0.01 -2.3054,0.0132 -4.60941,0.002 -6.91475,-0.016 -1.28892,-2.1e-4 -2.57784,-4.2e-4 -3.90582,-6.4e-4 -5.00428,-0.72002 -8.10269,-2.94659 -11.41657,-6.68807 -1.52773,-4.044 -1.76605,-7.79133 -0.0625,-11.8125 3.24731,-4.01193 5.27174,-5.72325 10.42667,-6.54871 4.45742,-0.28364 8.91442,-0.21357 13.37802,-0.16076 1.72052,-0.002 3.44104,-0.006 5.16154,-0.0127 3.69862,-0.009 7.39654,6.8e-4 11.09508,0.0249 5.86049,0.038 11.72045,0.0322 17.58102,0.0205 11.39554,-0.0168 22.790749,0.0112 34.18623,0.0434 14.475329,0.0385 28.950603,0.0545 43.425972,0.0348 5.812429,-0.006 11.624321,0.008 17.436667,0.0385 3.635764,0.0155 7.271397,0.0144 10.9071839,0.009 1.6707844,0.001 3.3415822,0.009 5.0122948,0.0244 C 13.37525,124.9327 27.968081,122.56786 40.714844,111.09375 50.42971,101.13642 55.155037,88.739667 55.5625,75 55.298672,60.852205 50.476634,48.904766 40.777344,38.640625 30.834196,29.481249 19.867521,25.440052 6.5273437,25.136719 5.4941602,25.112871 4.4609766,25.089023 3.3964844,25.064453 1.2534596,25.02141 -0.88983482,24.9902 -3.0332031,24.970703 -9.1790711,24.805636 -13.155901,24.574677 -17.75,20.3125 c -2.72547,-3.977927 -2.690431,-8.341668 -2,-13 C -14.715949,-0.84613427 -8.7114313,-0.04082208 0,0 Z"
     fill="#FCFCFC"
     transform="translate(656.75,381.6875)"
     id="path5"
     style="display:inline;fill:#000000;fill-opacity:1;stroke:#000000;stroke-width:14;stroke-dasharray:none;stroke-opacity:1" />
  <path
     d="m 0,0 c 1.7655632,-0.00571445 3.5311228,-0.01268283 5.2966766,-0.02079773 4.7557334,-0.01781651 9.5112824,-0.01678628 14.2670394,-0.01105761 3.97911,0.003105 7.958186,-0.0030143 11.937292,-0.0090387 9.383483,-0.01400235 18.766875,-0.0125165 28.150359,-0.0010981 9.672226,0.01150975 19.344176,-0.0026521 29.016366,-0.02939647 8.322175,-0.02214756 16.644267,-0.02879747 24.966467,-0.02292359 4.96322,0.0033691 9.92626,9.5621e-4 14.88945,-0.01625103 4.65988,-0.0154547 9.31934,-0.0115301 13.97921,0.007305 1.70841,0.0036883 3.41685,5.7045e-4 5.12524,-0.009886 2.33391,-0.0131942 4.66645,-0.001679 7.0003,0.01599121 1.30497,2.0928e-4 2.60994,4.1857e-4 3.95445,6.3419e-4 5.07791,0.72353612 8.23434,2.88080983 11.3881,6.87557123 1.38284,3.2266416 1.62259,5.1418646 1.125,8.6250006 -2.52344,4.949818 -4.90896,6.926364 -10,9 -3.45343,0.376381 -3.45343,0.376381 -7.32242,0.37854 -0.71537,0.0045 -1.43073,0.0091 -2.16777,0.01373 -2.38579,0.01158 -4.771,0.002 -7.15679,-0.0075 -1.71538,0.0041 -3.43077,0.0096 -5.14614,0.01628 -3.6897,0.01172 -7.37925,0.01421 -11.06896,0.0096 -5.84271,-0.0068 -11.68523,0.0091 -17.52791,0.0284 -12.411658,0.03785 -24.823303,0.05064 -37.235013,0.06091 -13.380104,0.01108 -26.760117,0.02656 -40.14016,0.07071 -5.798907,0.01829 -11.597589,0.02227 -17.396517,0.01506 -3.621426,-0.0015 -7.2427412,0.0093 -10.8641368,0.02338 -1.6687948,0.004 -3.3376111,0.0029 -5.00639724,-0.0038 C -16.492378,24.948093 -30.619558,27.44108 -43.216553,39.09148 c -10.073469,10.891939 -14.312971,23.53447 -13.910156,38.210937 0.978473,13.629954 6.37731,25.865353 16.410156,35.289063 8.63276,7.29345 18.189145,12.05483 29.628907,12.05078 1.8881538,0.0242 1.8881538,0.0242 3.8144526,0.0488 2.6249505,0.017 5.2500029,0.0221 7.87500004,0.0156 10.71021336,0.17017 10.71021336,0.17017 14.33398436,3.11523 3.258083,3.89438 3.505197,6.30604 3.441406,11.25781 -0.437292,3.61374 -1.875032,5.65787 -4.28125,8.32422 -12.0119816,6.00149 -32.082092,3.04851 -44.625,-0.73828 -9.238753,-3.45384 -16.855761,-7.91052 -24.375,-14.26172 -0.591679,-0.4473 -1.183359,-0.89461 -1.792968,-1.35547 -14.630045,-11.41612 -22.214184,-29.8046 -25.207032,-47.64453 -2.238687,-19.185909 3.156311,-38.433785 14.800782,-53.835938 7.875129,-9.842617 16.931583,-16.654549 28.074218,-22.4765626 0.611338,-0.3259717 1.222676,-0.6519433 1.852539,-0.9877929 C -25.336464,0.22656733 -12.899647,-0.0380509 0,0 Z"
     fill="#FCFCFC"
     transform="translate(565.90405,256.59595)"
     id="path6"
     style="display:inline;fill:#000000;fill-opacity:1;stroke:#000000;stroke-width:14;stroke-dasharray:none;stroke-opacity:1" />
</svg>
